G04 #@! TF.GenerationSoftware,KiCad,Pcbnew,7.0.6-0*
G04 #@! TF.CreationDate,2023-11-15T10:51:59-05:00*
G04 #@! TF.ProjectId,AntSniffer,416e7453-6e69-4666-9665-722e6b696361,rev?*
G04 #@! TF.SameCoordinates,Original*
G04 #@! TF.FileFunction,Soldermask,Bot*
G04 #@! TF.FilePolarity,Negative*
%FSLAX46Y46*%
G04 Gerber Fmt 4.6, Leading zero omitted, Abs format (unit mm)*
G04 Created by KiCad (PCBNEW 7.0.6-0) date 2023-11-15 10:51:59*
%MOMM*%
%LPD*%
G01*
G04 APERTURE LIST*
%ADD10R,1.700000X1.700000*%
%ADD11O,1.700000X1.700000*%
%ADD12C,1.524000*%
G04 APERTURE END LIST*
D10*
X168579800Y-45979000D03*
D11*
X168579800Y-48519000D03*
X168579800Y-51059000D03*
X168579800Y-53599000D03*
X168579800Y-56139000D03*
X168579800Y-58679000D03*
X168579800Y-61219000D03*
X168579800Y-63759000D03*
X168579800Y-66299000D03*
X168579800Y-68839000D03*
D12*
X182301000Y-49759600D03*
X184300000Y-49759600D03*
X182301000Y-51758600D03*
X184300000Y-51758600D03*
X182300000Y-53759600D03*
X184300000Y-53759600D03*
X182300000Y-55759600D03*
X184300000Y-55759600D03*
X182300000Y-57759600D03*
X184300000Y-57759600D03*
X182300000Y-59759600D03*
X184300000Y-59759600D03*
X182300000Y-61759600D03*
X184300000Y-61759600D03*
X182300000Y-63759600D03*
X184300000Y-63759600D03*
X182300000Y-65759600D03*
X184300000Y-65759600D03*
X154769000Y-49771800D03*
X152770000Y-49771800D03*
X154769000Y-51770800D03*
X152770000Y-51770800D03*
X154770000Y-53771800D03*
X152770000Y-53771800D03*
X154770000Y-55771800D03*
X152770000Y-55771800D03*
X154770000Y-57771800D03*
X152770000Y-57771800D03*
X154770000Y-59771800D03*
X152770000Y-59771800D03*
X154770000Y-61771800D03*
X152770000Y-61771800D03*
X154770000Y-63771800D03*
X152770000Y-63771800D03*
X154770000Y-65771800D03*
X152770000Y-65771800D03*
M02*
