G04 #@! TF.GenerationSoftware,KiCad,Pcbnew,7.0.6-0*
G04 #@! TF.CreationDate,2023-11-15T10:51:59-05:00*
G04 #@! TF.ProjectId,AntSniffer,416e7453-6e69-4666-9665-722e6b696361,rev?*
G04 #@! TF.SameCoordinates,Original*
G04 #@! TF.FileFunction,Copper,L3,Inr*
G04 #@! TF.FilePolarity,Positive*
%FSLAX46Y46*%
G04 Gerber Fmt 4.6, Leading zero omitted, Abs format (unit mm)*
G04 Created by KiCad (PCBNEW 7.0.6-0) date 2023-11-15 10:51:59*
%MOMM*%
%LPD*%
G01*
G04 APERTURE LIST*
G04 #@! TA.AperFunction,ComponentPad*
%ADD10R,1.700000X1.700000*%
G04 #@! TD*
G04 #@! TA.AperFunction,ComponentPad*
%ADD11O,1.700000X1.700000*%
G04 #@! TD*
G04 #@! TA.AperFunction,ComponentPad*
%ADD12C,1.524000*%
G04 #@! TD*
G04 #@! TA.AperFunction,ViaPad*
%ADD13C,0.800000*%
G04 #@! TD*
G04 APERTURE END LIST*
D10*
X168579800Y-45979000D03*
D11*
X168579800Y-48519000D03*
X168579800Y-51059000D03*
X168579800Y-53599000D03*
X168579800Y-56139000D03*
X168579800Y-58679000D03*
X168579800Y-61219000D03*
X168579800Y-63759000D03*
X168579800Y-66299000D03*
X168579800Y-68839000D03*
D12*
X182301000Y-49759600D03*
X184300000Y-49759600D03*
X182301000Y-51758600D03*
X184300000Y-51758600D03*
X182300000Y-53759600D03*
X184300000Y-53759600D03*
X182300000Y-55759600D03*
X184300000Y-55759600D03*
X182300000Y-57759600D03*
X184300000Y-57759600D03*
X182300000Y-59759600D03*
X184300000Y-59759600D03*
X182300000Y-61759600D03*
X184300000Y-61759600D03*
X182300000Y-63759600D03*
X184300000Y-63759600D03*
X182300000Y-65759600D03*
X184300000Y-65759600D03*
X154769000Y-49771800D03*
X152770000Y-49771800D03*
X154769000Y-51770800D03*
X152770000Y-51770800D03*
X154770000Y-53771800D03*
X152770000Y-53771800D03*
X154770000Y-55771800D03*
X152770000Y-55771800D03*
X154770000Y-57771800D03*
X152770000Y-57771800D03*
X154770000Y-59771800D03*
X152770000Y-59771800D03*
X154770000Y-61771800D03*
X152770000Y-61771800D03*
X154770000Y-63771800D03*
X152770000Y-63771800D03*
X154770000Y-65771800D03*
X152770000Y-65771800D03*
D13*
X180340000Y-61759600D03*
X180340000Y-49759600D03*
X185600000Y-63759600D03*
X151765000Y-63804800D03*
X162814000Y-70840600D03*
X172212000Y-71069200D03*
X157000000Y-57771800D03*
X180340000Y-57759600D03*
X157000000Y-49771800D03*
X157000000Y-61771800D03*
G04 #@! TA.AperFunction,Conductor*
G36*
X151717609Y-62555925D02*
G01*
X151784596Y-62575764D01*
X151804995Y-62592241D01*
X151955380Y-62742626D01*
X151955383Y-62742628D01*
X151955384Y-62742629D01*
X151962875Y-62747874D01*
X152136338Y-62869334D01*
X152275321Y-62934142D01*
X152310596Y-62958842D01*
X152725600Y-63373846D01*
X152644852Y-63386635D01*
X152531955Y-63444159D01*
X152442359Y-63533755D01*
X152384835Y-63646652D01*
X152372046Y-63727399D01*
X151718258Y-63073611D01*
X151718257Y-63073612D01*
X151672903Y-63138386D01*
X151579579Y-63338520D01*
X151579575Y-63338529D01*
X151522426Y-63551813D01*
X151522424Y-63551823D01*
X151503179Y-63771799D01*
X151503179Y-63771800D01*
X151522424Y-63991776D01*
X151522426Y-63991786D01*
X151579575Y-64205070D01*
X151579580Y-64205084D01*
X151672899Y-64405207D01*
X151672900Y-64405209D01*
X151718258Y-64469987D01*
X152372046Y-63816199D01*
X152384835Y-63896948D01*
X152442359Y-64009845D01*
X152531955Y-64099441D01*
X152644852Y-64156965D01*
X152725599Y-64169753D01*
X152310597Y-64584755D01*
X152275322Y-64609456D01*
X152136339Y-64674265D01*
X151955377Y-64800975D01*
X151799175Y-64957177D01*
X151672466Y-65138138D01*
X151672465Y-65138140D01*
X151579107Y-65338348D01*
X151579104Y-65338354D01*
X151521930Y-65551729D01*
X151521929Y-65551737D01*
X151502677Y-65771797D01*
X151502677Y-65771802D01*
X151521929Y-65991862D01*
X151521930Y-65991870D01*
X151579104Y-66205245D01*
X151579105Y-66205247D01*
X151579106Y-66205250D01*
X151622822Y-66298999D01*
X151672466Y-66405462D01*
X151672468Y-66405466D01*
X151799170Y-66586415D01*
X151799175Y-66586421D01*
X151955378Y-66742624D01*
X151955384Y-66742629D01*
X152136333Y-66869331D01*
X152136335Y-66869332D01*
X152136338Y-66869334D01*
X152336550Y-66962694D01*
X152549932Y-67019870D01*
X152707123Y-67033622D01*
X152769998Y-67039123D01*
X152770000Y-67039123D01*
X152770002Y-67039123D01*
X152825016Y-67034309D01*
X152990068Y-67019870D01*
X153203450Y-66962694D01*
X153403662Y-66869334D01*
X153584620Y-66742626D01*
X153682319Y-66644927D01*
X153743642Y-66611442D01*
X153813334Y-66616426D01*
X153857681Y-66644927D01*
X153955378Y-66742624D01*
X153955384Y-66742629D01*
X154136333Y-66869331D01*
X154136335Y-66869332D01*
X154136338Y-66869334D01*
X154336550Y-66962694D01*
X154549932Y-67019870D01*
X154707123Y-67033622D01*
X154769998Y-67039123D01*
X154770000Y-67039123D01*
X154770002Y-67039123D01*
X154825016Y-67034309D01*
X154990068Y-67019870D01*
X155203450Y-66962694D01*
X155403662Y-66869334D01*
X155584620Y-66742626D01*
X155740826Y-66586420D01*
X155867534Y-66405462D01*
X155960894Y-66205250D01*
X156018070Y-65991868D01*
X156037323Y-65771800D01*
X156036255Y-65759597D01*
X156018070Y-65551737D01*
X156018070Y-65551732D01*
X155960894Y-65338350D01*
X155867534Y-65138139D01*
X155770000Y-64998845D01*
X155740824Y-64957177D01*
X155643127Y-64859480D01*
X155609642Y-64798157D01*
X155614626Y-64728465D01*
X155643123Y-64684122D01*
X155740826Y-64586420D01*
X155867534Y-64405462D01*
X155960894Y-64205250D01*
X156018070Y-63991868D01*
X156037323Y-63771800D01*
X156036255Y-63759598D01*
X156018070Y-63551737D01*
X156018070Y-63551732D01*
X155960894Y-63338350D01*
X155867534Y-63138139D01*
X155740826Y-62957180D01*
X155705586Y-62921940D01*
X155643127Y-62859480D01*
X155609643Y-62798156D01*
X155614627Y-62728465D01*
X155643128Y-62684118D01*
X155725492Y-62601754D01*
X155786815Y-62568269D01*
X155813442Y-62565436D01*
X156546335Y-62567138D01*
X156596471Y-62577857D01*
X156720197Y-62632944D01*
X156905354Y-62672300D01*
X156905355Y-62672300D01*
X157094644Y-62672300D01*
X157094646Y-62672300D01*
X157279803Y-62632944D01*
X157398817Y-62579954D01*
X157449528Y-62569236D01*
X167537171Y-62592663D01*
X167604161Y-62612503D01*
X167649793Y-62665413D01*
X167659576Y-62734594D01*
X167630403Y-62798082D01*
X167624560Y-62804343D01*
X167541305Y-62887597D01*
X167405765Y-63081169D01*
X167405764Y-63081171D01*
X167305898Y-63295335D01*
X167305894Y-63295344D01*
X167244738Y-63523586D01*
X167244736Y-63523596D01*
X167224141Y-63758999D01*
X167224141Y-63759000D01*
X167244736Y-63994403D01*
X167244738Y-63994413D01*
X167305894Y-64222655D01*
X167305896Y-64222659D01*
X167305897Y-64222663D01*
X167385336Y-64393020D01*
X167405765Y-64436830D01*
X167405767Y-64436834D01*
X167541301Y-64630395D01*
X167541306Y-64630402D01*
X167708397Y-64797493D01*
X167708403Y-64797498D01*
X167893958Y-64927425D01*
X167937583Y-64982002D01*
X167944777Y-65051500D01*
X167913254Y-65113855D01*
X167893958Y-65130575D01*
X167708397Y-65260505D01*
X167541305Y-65427597D01*
X167405765Y-65621169D01*
X167405764Y-65621171D01*
X167305898Y-65835335D01*
X167305894Y-65835344D01*
X167244738Y-66063586D01*
X167244736Y-66063596D01*
X167224141Y-66298999D01*
X167224141Y-66299000D01*
X167244736Y-66534403D01*
X167244738Y-66534413D01*
X167305894Y-66762655D01*
X167305896Y-66762659D01*
X167305897Y-66762663D01*
X167355638Y-66869333D01*
X167405765Y-66976830D01*
X167405767Y-66976834D01*
X167541301Y-67170395D01*
X167541306Y-67170402D01*
X167708397Y-67337493D01*
X167708403Y-67337498D01*
X167894394Y-67467730D01*
X167938019Y-67522307D01*
X167945213Y-67591805D01*
X167913690Y-67654160D01*
X167894395Y-67670880D01*
X167708722Y-67800890D01*
X167708720Y-67800891D01*
X167541691Y-67967920D01*
X167541686Y-67967926D01*
X167406200Y-68161420D01*
X167406199Y-68161422D01*
X167306370Y-68375507D01*
X167306367Y-68375513D01*
X167249164Y-68588999D01*
X167249164Y-68589000D01*
X168146114Y-68589000D01*
X168120307Y-68629156D01*
X168079800Y-68767111D01*
X168079800Y-68910889D01*
X168120307Y-69048844D01*
X168146114Y-69089000D01*
X167249164Y-69089000D01*
X167306367Y-69302486D01*
X167306370Y-69302492D01*
X167406199Y-69516578D01*
X167541694Y-69710082D01*
X167708717Y-69877105D01*
X167902221Y-70012600D01*
X168116307Y-70112429D01*
X168116316Y-70112433D01*
X168329800Y-70169634D01*
X168329800Y-69274501D01*
X168437485Y-69323680D01*
X168544037Y-69339000D01*
X168615563Y-69339000D01*
X168722115Y-69323680D01*
X168829800Y-69274501D01*
X168829800Y-70169633D01*
X169043283Y-70112433D01*
X169043292Y-70112429D01*
X169257378Y-70012600D01*
X169450882Y-69877105D01*
X169617905Y-69710082D01*
X169753400Y-69516578D01*
X169853229Y-69302492D01*
X169853232Y-69302486D01*
X169910436Y-69089000D01*
X169013486Y-69089000D01*
X169039293Y-69048844D01*
X169079800Y-68910889D01*
X169079800Y-68767111D01*
X169039293Y-68629156D01*
X169013486Y-68589000D01*
X169910436Y-68589000D01*
X169910435Y-68588999D01*
X169853232Y-68375513D01*
X169853229Y-68375507D01*
X169753400Y-68161422D01*
X169753399Y-68161420D01*
X169617913Y-67967926D01*
X169617908Y-67967920D01*
X169450878Y-67800890D01*
X169265205Y-67670879D01*
X169221580Y-67616302D01*
X169214388Y-67546804D01*
X169245910Y-67484449D01*
X169265206Y-67467730D01*
X169451201Y-67337495D01*
X169618295Y-67170401D01*
X169753835Y-66976830D01*
X169853703Y-66762663D01*
X169914863Y-66534408D01*
X169935459Y-66299000D01*
X169914863Y-66063592D01*
X169853703Y-65835337D01*
X169753835Y-65621171D01*
X169705214Y-65551732D01*
X169618294Y-65427597D01*
X169451202Y-65260506D01*
X169451201Y-65260505D01*
X169276446Y-65138140D01*
X169265641Y-65130574D01*
X169222016Y-65075997D01*
X169214824Y-65006498D01*
X169246346Y-64944144D01*
X169265636Y-64927428D01*
X169451201Y-64797495D01*
X169618295Y-64630401D01*
X169753835Y-64436830D01*
X169853703Y-64222663D01*
X169914863Y-63994408D01*
X169935459Y-63759000D01*
X169914863Y-63523592D01*
X169853703Y-63295337D01*
X169753835Y-63081171D01*
X169748543Y-63073612D01*
X169618294Y-62887597D01*
X169539894Y-62809197D01*
X169506409Y-62747874D01*
X169511393Y-62678182D01*
X169553265Y-62622249D01*
X169618729Y-62597832D01*
X169627794Y-62597518D01*
X180052083Y-62621726D01*
X180077566Y-62624435D01*
X180245354Y-62660100D01*
X180245355Y-62660100D01*
X180434645Y-62660100D01*
X180434646Y-62660100D01*
X180596216Y-62625757D01*
X180622251Y-62623051D01*
X181328574Y-62624691D01*
X181395564Y-62644531D01*
X181415963Y-62661009D01*
X181426872Y-62671918D01*
X181460357Y-62733241D01*
X181455373Y-62802933D01*
X181426873Y-62847280D01*
X181329172Y-62944981D01*
X181202466Y-63125938D01*
X181202465Y-63125940D01*
X181109107Y-63326148D01*
X181109104Y-63326154D01*
X181051930Y-63539529D01*
X181051929Y-63539537D01*
X181032677Y-63759597D01*
X181032677Y-63759602D01*
X181051929Y-63979662D01*
X181051930Y-63979670D01*
X181109104Y-64193045D01*
X181109105Y-64193047D01*
X181109106Y-64193050D01*
X181202348Y-64393008D01*
X181202466Y-64393262D01*
X181202468Y-64393266D01*
X181329170Y-64574215D01*
X181329175Y-64574221D01*
X181426872Y-64671918D01*
X181460357Y-64733241D01*
X181455373Y-64802933D01*
X181426873Y-64847280D01*
X181329172Y-64944981D01*
X181202466Y-65125938D01*
X181202465Y-65125940D01*
X181109107Y-65326148D01*
X181109104Y-65326154D01*
X181051930Y-65539529D01*
X181051929Y-65539537D01*
X181032677Y-65759597D01*
X181032677Y-65759602D01*
X181051929Y-65979662D01*
X181051930Y-65979670D01*
X181109104Y-66193045D01*
X181109105Y-66193047D01*
X181109106Y-66193050D01*
X181158511Y-66298999D01*
X181202466Y-66393262D01*
X181202468Y-66393266D01*
X181329170Y-66574215D01*
X181329175Y-66574221D01*
X181485378Y-66730424D01*
X181485384Y-66730429D01*
X181666333Y-66857131D01*
X181666335Y-66857132D01*
X181666338Y-66857134D01*
X181866550Y-66950494D01*
X182079932Y-67007670D01*
X182219371Y-67019869D01*
X182299998Y-67026923D01*
X182300000Y-67026923D01*
X182300002Y-67026923D01*
X182355016Y-67022109D01*
X182520068Y-67007670D01*
X182733450Y-66950494D01*
X182933662Y-66857134D01*
X183114620Y-66730426D01*
X183212321Y-66632724D01*
X183273640Y-66599242D01*
X183343332Y-66604226D01*
X183387680Y-66632726D01*
X183485380Y-66730426D01*
X183485383Y-66730428D01*
X183485384Y-66730429D01*
X183666333Y-66857131D01*
X183666335Y-66857132D01*
X183666338Y-66857134D01*
X183866550Y-66950494D01*
X184079932Y-67007670D01*
X184219371Y-67019869D01*
X184299998Y-67026923D01*
X184300000Y-67026923D01*
X184300002Y-67026923D01*
X184355016Y-67022109D01*
X184520068Y-67007670D01*
X184733450Y-66950494D01*
X184933662Y-66857134D01*
X185114620Y-66730426D01*
X185270826Y-66574220D01*
X185397534Y-66393262D01*
X185490894Y-66193050D01*
X185548070Y-65979668D01*
X185567323Y-65759600D01*
X185548070Y-65539532D01*
X185490894Y-65326150D01*
X185397534Y-65125939D01*
X185313901Y-65006498D01*
X185270827Y-64944981D01*
X185212318Y-64886472D01*
X185114620Y-64788774D01*
X185114616Y-64788771D01*
X185114615Y-64788770D01*
X184933666Y-64662068D01*
X184933662Y-64662066D01*
X184794677Y-64597256D01*
X184759401Y-64572555D01*
X184344401Y-64157553D01*
X184425148Y-64144765D01*
X184538045Y-64087241D01*
X184627641Y-63997645D01*
X184685165Y-63884748D01*
X184697953Y-63804000D01*
X185351740Y-64457787D01*
X185351742Y-64457786D01*
X185397093Y-64393020D01*
X185397100Y-64393008D01*
X185490419Y-64192884D01*
X185490424Y-64192870D01*
X185547573Y-63979586D01*
X185547575Y-63979576D01*
X185566821Y-63759600D01*
X185566821Y-63759599D01*
X185547575Y-63539623D01*
X185547573Y-63539613D01*
X185490424Y-63326329D01*
X185490420Y-63326320D01*
X185397098Y-63126190D01*
X185351740Y-63061411D01*
X184697953Y-63715198D01*
X184685165Y-63634452D01*
X184627641Y-63521555D01*
X184538045Y-63431959D01*
X184425148Y-63374435D01*
X184344398Y-63361645D01*
X184759401Y-62946642D01*
X184794671Y-62921946D01*
X184933662Y-62857134D01*
X185114620Y-62730426D01*
X185174903Y-62670142D01*
X185236222Y-62636660D01*
X185262849Y-62633828D01*
X192775793Y-62651275D01*
X192842782Y-62671115D01*
X192888414Y-62724025D01*
X192899500Y-62775274D01*
X192899500Y-72494100D01*
X192879815Y-72561139D01*
X192827011Y-72606894D01*
X192775500Y-72618100D01*
X144424500Y-72618100D01*
X144357461Y-72598415D01*
X144311706Y-72545611D01*
X144300500Y-72494100D01*
X144300500Y-70840600D01*
X161908540Y-70840600D01*
X161928326Y-71028856D01*
X161928327Y-71028859D01*
X161986818Y-71208877D01*
X161986821Y-71208884D01*
X162081467Y-71372816D01*
X162208128Y-71513488D01*
X162208129Y-71513488D01*
X162361265Y-71624748D01*
X162361270Y-71624751D01*
X162534192Y-71701742D01*
X162534197Y-71701744D01*
X162719354Y-71741100D01*
X162719355Y-71741100D01*
X162908644Y-71741100D01*
X162908646Y-71741100D01*
X163093803Y-71701744D01*
X163266730Y-71624751D01*
X163419871Y-71513488D01*
X163546533Y-71372816D01*
X163641179Y-71208884D01*
X163686565Y-71069200D01*
X171306540Y-71069200D01*
X171326326Y-71257456D01*
X171326327Y-71257459D01*
X171384818Y-71437477D01*
X171384821Y-71437484D01*
X171479467Y-71601416D01*
X171569801Y-71701742D01*
X171606129Y-71742088D01*
X171759265Y-71853348D01*
X171759270Y-71853351D01*
X171932192Y-71930342D01*
X171932197Y-71930344D01*
X172117354Y-71969700D01*
X172117355Y-71969700D01*
X172306644Y-71969700D01*
X172306646Y-71969700D01*
X172491803Y-71930344D01*
X172664730Y-71853351D01*
X172817871Y-71742088D01*
X172944533Y-71601416D01*
X173039179Y-71437484D01*
X173097674Y-71257456D01*
X173117460Y-71069200D01*
X173097674Y-70880944D01*
X173039179Y-70700916D01*
X172944533Y-70536984D01*
X172817871Y-70396312D01*
X172817870Y-70396311D01*
X172664734Y-70285051D01*
X172664729Y-70285048D01*
X172491807Y-70208057D01*
X172491802Y-70208055D01*
X172346000Y-70177065D01*
X172306646Y-70168700D01*
X172117354Y-70168700D01*
X172084897Y-70175598D01*
X171932197Y-70208055D01*
X171932192Y-70208057D01*
X171759270Y-70285048D01*
X171759265Y-70285051D01*
X171606129Y-70396311D01*
X171479466Y-70536985D01*
X171384821Y-70700915D01*
X171384818Y-70700922D01*
X171326327Y-70880940D01*
X171326326Y-70880944D01*
X171306540Y-71069200D01*
X163686565Y-71069200D01*
X163699674Y-71028856D01*
X163719460Y-70840600D01*
X163699674Y-70652344D01*
X163641179Y-70472316D01*
X163546533Y-70308384D01*
X163419871Y-70167712D01*
X163343786Y-70112433D01*
X163266734Y-70056451D01*
X163266729Y-70056448D01*
X163093807Y-69979457D01*
X163093802Y-69979455D01*
X162948001Y-69948465D01*
X162908646Y-69940100D01*
X162719354Y-69940100D01*
X162686897Y-69946998D01*
X162534197Y-69979455D01*
X162534192Y-69979457D01*
X162361270Y-70056448D01*
X162361265Y-70056451D01*
X162208129Y-70167711D01*
X162081466Y-70308385D01*
X161986821Y-70472315D01*
X161986818Y-70472322D01*
X161928327Y-70652340D01*
X161928326Y-70652344D01*
X161908540Y-70840600D01*
X144300500Y-70840600D01*
X144300500Y-62662988D01*
X144320185Y-62595949D01*
X144372989Y-62550194D01*
X144424784Y-62538988D01*
X151717609Y-62555925D01*
G37*
G04 #@! TD.AperFunction*
G04 #@! TA.AperFunction,Conductor*
G36*
X153582955Y-64231201D02*
G01*
X153607656Y-64266477D01*
X153672466Y-64405462D01*
X153672468Y-64405466D01*
X153799170Y-64586415D01*
X153799175Y-64586421D01*
X153896872Y-64684118D01*
X153930357Y-64745441D01*
X153925373Y-64815133D01*
X153896873Y-64859479D01*
X153857682Y-64898671D01*
X153796360Y-64932157D01*
X153726668Y-64927173D01*
X153682319Y-64898673D01*
X153643125Y-64859479D01*
X153584620Y-64800974D01*
X153584616Y-64800971D01*
X153584615Y-64800970D01*
X153403666Y-64674268D01*
X153403662Y-64674266D01*
X153264677Y-64609456D01*
X153229401Y-64584755D01*
X152814401Y-64169753D01*
X152895148Y-64156965D01*
X153008045Y-64099441D01*
X153097641Y-64009845D01*
X153155165Y-63896948D01*
X153167953Y-63816200D01*
X153582955Y-64231201D01*
G37*
G04 #@! TD.AperFunction*
G04 #@! TA.AperFunction,Conductor*
G36*
X183914835Y-63884748D02*
G01*
X183972359Y-63997645D01*
X184061955Y-64087241D01*
X184174852Y-64144765D01*
X184255599Y-64157553D01*
X183840597Y-64572555D01*
X183805322Y-64597256D01*
X183666339Y-64662065D01*
X183485381Y-64788772D01*
X183387680Y-64886473D01*
X183326356Y-64919957D01*
X183256665Y-64914973D01*
X183212318Y-64886472D01*
X183173127Y-64847281D01*
X183139642Y-64785958D01*
X183144626Y-64716266D01*
X183173127Y-64671919D01*
X183214651Y-64630395D01*
X183270826Y-64574220D01*
X183397534Y-64393262D01*
X183462346Y-64254271D01*
X183487042Y-64219002D01*
X183902045Y-63803998D01*
X183914835Y-63884748D01*
G37*
G04 #@! TD.AperFunction*
G04 #@! TA.AperFunction,Conductor*
G36*
X153813333Y-62616425D02*
G01*
X153857679Y-62644925D01*
X153878167Y-62665413D01*
X153896873Y-62684119D01*
X153930358Y-62745442D01*
X153925372Y-62815134D01*
X153896873Y-62859480D01*
X153799172Y-62957181D01*
X153672465Y-63138139D01*
X153607656Y-63277122D01*
X153582955Y-63312397D01*
X153167953Y-63727398D01*
X153155165Y-63646652D01*
X153097641Y-63533755D01*
X153008045Y-63444159D01*
X152895148Y-63386635D01*
X152814398Y-63373845D01*
X153229401Y-62958842D01*
X153264671Y-62934146D01*
X153403662Y-62869334D01*
X153584620Y-62742626D01*
X153682322Y-62644923D01*
X153743641Y-62611441D01*
X153813333Y-62616425D01*
G37*
G04 #@! TD.AperFunction*
G04 #@! TA.AperFunction,Conductor*
G36*
X183333229Y-62629346D02*
G01*
X183400220Y-62649187D01*
X183420619Y-62665665D01*
X183485378Y-62730424D01*
X183485384Y-62730429D01*
X183506825Y-62745442D01*
X183666338Y-62857134D01*
X183805321Y-62921942D01*
X183840596Y-62946642D01*
X184255600Y-63361646D01*
X184174852Y-63374435D01*
X184061955Y-63431959D01*
X183972359Y-63521555D01*
X183914835Y-63634452D01*
X183902046Y-63715198D01*
X183487043Y-63300197D01*
X183462342Y-63264921D01*
X183403223Y-63138140D01*
X183397534Y-63125939D01*
X183314722Y-63007670D01*
X183270827Y-62944981D01*
X183247786Y-62921940D01*
X183173125Y-62847279D01*
X183139642Y-62785959D01*
X183144626Y-62716267D01*
X183173120Y-62671926D01*
X183174901Y-62670145D01*
X183179528Y-62665517D01*
X183240846Y-62632029D01*
X183267491Y-62629194D01*
X183333229Y-62629346D01*
G37*
G04 #@! TD.AperFunction*
M02*
