%TF.GenerationSoftware,KiCad,Pcbnew,7.0.6-0*%
%TF.CreationDate,2023-11-15T10:52:04-05:00*%
%TF.ProjectId,AntSniffer,416e7453-6e69-4666-9665-722e6b696361,rev?*%
%TF.SameCoordinates,Original*%
%TF.FileFunction,Drillmap*%
%TF.FilePolarity,Positive*%
%FSLAX45Y45*%
G04 Gerber Fmt 4.5, Leading zero omitted, Abs format (unit mm)*
G04 Created by KiCad (PCBNEW 7.0.6-0) date 2023-11-15 10:52:04*
%MOMM*%
%LPD*%
G01*
G04 APERTURE LIST*
%ADD10C,0.100000*%
%ADD11C,0.200000*%
%ADD12C,0.040000*%
%ADD13C,0.080000*%
G04 APERTURE END LIST*
D10*
X14430000Y-4254500D02*
X19290000Y-4254500D01*
X19290000Y-7261860D01*
X14430000Y-7261860D01*
X14430000Y-4254500D01*
D11*
D12*
X15156500Y-6360480D02*
X15196500Y-6400480D01*
X15196500Y-6360480D02*
X15156500Y-6400480D01*
X15680000Y-4957180D02*
X15720000Y-4997180D01*
X15720000Y-4957180D02*
X15680000Y-4997180D01*
X15680000Y-5757180D02*
X15720000Y-5797180D01*
X15720000Y-5757180D02*
X15680000Y-5797180D01*
X15680000Y-6157180D02*
X15720000Y-6197180D01*
X15720000Y-6157180D02*
X15680000Y-6197180D01*
X16261400Y-7064060D02*
X16301400Y-7104060D01*
X16301400Y-7064060D02*
X16261400Y-7104060D01*
X17201200Y-7086920D02*
X17241200Y-7126920D01*
X17241200Y-7086920D02*
X17201200Y-7126920D01*
X18014000Y-4955960D02*
X18054000Y-4995960D01*
X18054000Y-4955960D02*
X18014000Y-4995960D01*
X18014000Y-5755960D02*
X18054000Y-5795960D01*
X18054000Y-5755960D02*
X18014000Y-5795960D01*
X18014000Y-6155960D02*
X18054000Y-6195960D01*
X18054000Y-6155960D02*
X18014000Y-6195960D01*
X18540000Y-6355960D02*
X18580000Y-6395960D01*
X18580000Y-6355960D02*
X18540000Y-6395960D01*
D13*
X15317000Y-4977180D02*
G75*
G03*
X15317000Y-4977180I-40000J0D01*
G01*
X15317000Y-5177080D02*
G75*
G03*
X15317000Y-5177080I-40000J0D01*
G01*
X15317000Y-5377180D02*
G75*
G03*
X15317000Y-5377180I-40000J0D01*
G01*
X15317000Y-5577180D02*
G75*
G03*
X15317000Y-5577180I-40000J0D01*
G01*
X15317000Y-5777180D02*
G75*
G03*
X15317000Y-5777180I-40000J0D01*
G01*
X15317000Y-5977180D02*
G75*
G03*
X15317000Y-5977180I-40000J0D01*
G01*
X15317000Y-6177180D02*
G75*
G03*
X15317000Y-6177180I-40000J0D01*
G01*
X15317000Y-6377180D02*
G75*
G03*
X15317000Y-6377180I-40000J0D01*
G01*
X15317000Y-6577180D02*
G75*
G03*
X15317000Y-6577180I-40000J0D01*
G01*
X15516900Y-4977180D02*
G75*
G03*
X15516900Y-4977180I-40000J0D01*
G01*
X15516900Y-5177080D02*
G75*
G03*
X15516900Y-5177080I-40000J0D01*
G01*
X15517000Y-5377180D02*
G75*
G03*
X15517000Y-5377180I-40000J0D01*
G01*
X15517000Y-5577180D02*
G75*
G03*
X15517000Y-5577180I-40000J0D01*
G01*
X15517000Y-5777180D02*
G75*
G03*
X15517000Y-5777180I-40000J0D01*
G01*
X15517000Y-5977180D02*
G75*
G03*
X15517000Y-5977180I-40000J0D01*
G01*
X15517000Y-6177180D02*
G75*
G03*
X15517000Y-6177180I-40000J0D01*
G01*
X15517000Y-6377180D02*
G75*
G03*
X15517000Y-6377180I-40000J0D01*
G01*
X15517000Y-6577180D02*
G75*
G03*
X15517000Y-6577180I-40000J0D01*
G01*
X18270000Y-5375960D02*
G75*
G03*
X18270000Y-5375960I-40000J0D01*
G01*
X18270000Y-5575960D02*
G75*
G03*
X18270000Y-5575960I-40000J0D01*
G01*
X18270000Y-5775960D02*
G75*
G03*
X18270000Y-5775960I-40000J0D01*
G01*
X18270000Y-5975960D02*
G75*
G03*
X18270000Y-5975960I-40000J0D01*
G01*
X18270000Y-6175960D02*
G75*
G03*
X18270000Y-6175960I-40000J0D01*
G01*
X18270000Y-6375960D02*
G75*
G03*
X18270000Y-6375960I-40000J0D01*
G01*
X18270000Y-6575960D02*
G75*
G03*
X18270000Y-6575960I-40000J0D01*
G01*
X18270100Y-4975960D02*
G75*
G03*
X18270100Y-4975960I-40000J0D01*
G01*
X18270100Y-5175860D02*
G75*
G03*
X18270100Y-5175860I-40000J0D01*
G01*
X18470000Y-4975960D02*
G75*
G03*
X18470000Y-4975960I-40000J0D01*
G01*
X18470000Y-5175860D02*
G75*
G03*
X18470000Y-5175860I-40000J0D01*
G01*
X18470000Y-5375960D02*
G75*
G03*
X18470000Y-5375960I-40000J0D01*
G01*
X18470000Y-5575960D02*
G75*
G03*
X18470000Y-5575960I-40000J0D01*
G01*
X18470000Y-5775960D02*
G75*
G03*
X18470000Y-5775960I-40000J0D01*
G01*
X18470000Y-5975960D02*
G75*
G03*
X18470000Y-5975960I-40000J0D01*
G01*
X18470000Y-6175960D02*
G75*
G03*
X18470000Y-6175960I-40000J0D01*
G01*
X18470000Y-6375960D02*
G75*
G03*
X18470000Y-6375960I-40000J0D01*
G01*
X18470000Y-6575960D02*
G75*
G03*
X18470000Y-6575960I-40000J0D01*
G01*
D10*
X16857980Y-4547900D02*
X16857980Y-4647900D01*
X16807980Y-4597900D02*
X16907980Y-4597900D01*
X16857980Y-4801900D02*
X16857980Y-4901900D01*
X16807980Y-4851900D02*
X16907980Y-4851900D01*
X16857980Y-5055900D02*
X16857980Y-5155900D01*
X16807980Y-5105900D02*
X16907980Y-5105900D01*
X16857980Y-5309900D02*
X16857980Y-5409900D01*
X16807980Y-5359900D02*
X16907980Y-5359900D01*
X16857980Y-5563900D02*
X16857980Y-5663900D01*
X16807980Y-5613900D02*
X16907980Y-5613900D01*
X16857980Y-5817900D02*
X16857980Y-5917900D01*
X16807980Y-5867900D02*
X16907980Y-5867900D01*
X16857980Y-6071900D02*
X16857980Y-6171900D01*
X16807980Y-6121900D02*
X16907980Y-6121900D01*
X16857980Y-6325900D02*
X16857980Y-6425900D01*
X16807980Y-6375900D02*
X16907980Y-6375900D01*
X16857980Y-6579900D02*
X16857980Y-6679900D01*
X16807980Y-6629900D02*
X16907980Y-6629900D01*
X16857980Y-6833900D02*
X16857980Y-6933900D01*
X16807980Y-6883900D02*
X16907980Y-6883900D01*
D11*
X14685777Y-7578344D02*
X14685777Y-7378344D01*
X14685777Y-7378344D02*
X14733396Y-7378344D01*
X14733396Y-7378344D02*
X14761967Y-7387868D01*
X14761967Y-7387868D02*
X14781015Y-7406915D01*
X14781015Y-7406915D02*
X14790539Y-7425963D01*
X14790539Y-7425963D02*
X14800062Y-7464058D01*
X14800062Y-7464058D02*
X14800062Y-7492629D01*
X14800062Y-7492629D02*
X14790539Y-7530725D01*
X14790539Y-7530725D02*
X14781015Y-7549772D01*
X14781015Y-7549772D02*
X14761967Y-7568820D01*
X14761967Y-7568820D02*
X14733396Y-7578344D01*
X14733396Y-7578344D02*
X14685777Y-7578344D01*
X14885777Y-7578344D02*
X14885777Y-7445010D01*
X14885777Y-7483106D02*
X14895301Y-7464058D01*
X14895301Y-7464058D02*
X14904824Y-7454534D01*
X14904824Y-7454534D02*
X14923872Y-7445010D01*
X14923872Y-7445010D02*
X14942920Y-7445010D01*
X15009586Y-7578344D02*
X15009586Y-7445010D01*
X15009586Y-7378344D02*
X15000062Y-7387868D01*
X15000062Y-7387868D02*
X15009586Y-7397391D01*
X15009586Y-7397391D02*
X15019110Y-7387868D01*
X15019110Y-7387868D02*
X15009586Y-7378344D01*
X15009586Y-7378344D02*
X15009586Y-7397391D01*
X15133396Y-7578344D02*
X15114348Y-7568820D01*
X15114348Y-7568820D02*
X15104824Y-7549772D01*
X15104824Y-7549772D02*
X15104824Y-7378344D01*
X15238158Y-7578344D02*
X15219110Y-7568820D01*
X15219110Y-7568820D02*
X15209586Y-7549772D01*
X15209586Y-7549772D02*
X15209586Y-7378344D01*
X15466729Y-7578344D02*
X15466729Y-7378344D01*
X15466729Y-7378344D02*
X15533396Y-7521201D01*
X15533396Y-7521201D02*
X15600062Y-7378344D01*
X15600062Y-7378344D02*
X15600062Y-7578344D01*
X15781015Y-7578344D02*
X15781015Y-7473582D01*
X15781015Y-7473582D02*
X15771491Y-7454534D01*
X15771491Y-7454534D02*
X15752443Y-7445010D01*
X15752443Y-7445010D02*
X15714348Y-7445010D01*
X15714348Y-7445010D02*
X15695301Y-7454534D01*
X15781015Y-7568820D02*
X15761967Y-7578344D01*
X15761967Y-7578344D02*
X15714348Y-7578344D01*
X15714348Y-7578344D02*
X15695301Y-7568820D01*
X15695301Y-7568820D02*
X15685777Y-7549772D01*
X15685777Y-7549772D02*
X15685777Y-7530725D01*
X15685777Y-7530725D02*
X15695301Y-7511677D01*
X15695301Y-7511677D02*
X15714348Y-7502153D01*
X15714348Y-7502153D02*
X15761967Y-7502153D01*
X15761967Y-7502153D02*
X15781015Y-7492629D01*
X15876253Y-7445010D02*
X15876253Y-7645010D01*
X15876253Y-7454534D02*
X15895301Y-7445010D01*
X15895301Y-7445010D02*
X15933396Y-7445010D01*
X15933396Y-7445010D02*
X15952443Y-7454534D01*
X15952443Y-7454534D02*
X15961967Y-7464058D01*
X15961967Y-7464058D02*
X15971491Y-7483106D01*
X15971491Y-7483106D02*
X15971491Y-7540248D01*
X15971491Y-7540248D02*
X15961967Y-7559296D01*
X15961967Y-7559296D02*
X15952443Y-7568820D01*
X15952443Y-7568820D02*
X15933396Y-7578344D01*
X15933396Y-7578344D02*
X15895301Y-7578344D01*
X15895301Y-7578344D02*
X15876253Y-7568820D01*
X16057205Y-7559296D02*
X16066729Y-7568820D01*
X16066729Y-7568820D02*
X16057205Y-7578344D01*
X16057205Y-7578344D02*
X16047682Y-7568820D01*
X16047682Y-7568820D02*
X16057205Y-7559296D01*
X16057205Y-7559296D02*
X16057205Y-7578344D01*
X16057205Y-7454534D02*
X16066729Y-7464058D01*
X16066729Y-7464058D02*
X16057205Y-7473582D01*
X16057205Y-7473582D02*
X16047682Y-7464058D01*
X16047682Y-7464058D02*
X16057205Y-7454534D01*
X16057205Y-7454534D02*
X16057205Y-7473582D01*
D12*
X14385000Y-7886860D02*
X14425000Y-7926860D01*
X14425000Y-7886860D02*
X14385000Y-7926860D01*
D11*
X14723872Y-7798344D02*
X14742920Y-7798344D01*
X14742920Y-7798344D02*
X14761967Y-7807868D01*
X14761967Y-7807868D02*
X14771491Y-7817391D01*
X14771491Y-7817391D02*
X14781015Y-7836439D01*
X14781015Y-7836439D02*
X14790539Y-7874534D01*
X14790539Y-7874534D02*
X14790539Y-7922153D01*
X14790539Y-7922153D02*
X14781015Y-7960248D01*
X14781015Y-7960248D02*
X14771491Y-7979296D01*
X14771491Y-7979296D02*
X14761967Y-7988820D01*
X14761967Y-7988820D02*
X14742920Y-7998344D01*
X14742920Y-7998344D02*
X14723872Y-7998344D01*
X14723872Y-7998344D02*
X14704824Y-7988820D01*
X14704824Y-7988820D02*
X14695301Y-7979296D01*
X14695301Y-7979296D02*
X14685777Y-7960248D01*
X14685777Y-7960248D02*
X14676253Y-7922153D01*
X14676253Y-7922153D02*
X14676253Y-7874534D01*
X14676253Y-7874534D02*
X14685777Y-7836439D01*
X14685777Y-7836439D02*
X14695301Y-7817391D01*
X14695301Y-7817391D02*
X14704824Y-7807868D01*
X14704824Y-7807868D02*
X14723872Y-7798344D01*
X14876253Y-7979296D02*
X14885777Y-7988820D01*
X14885777Y-7988820D02*
X14876253Y-7998344D01*
X14876253Y-7998344D02*
X14866729Y-7988820D01*
X14866729Y-7988820D02*
X14876253Y-7979296D01*
X14876253Y-7979296D02*
X14876253Y-7998344D01*
X15057205Y-7865010D02*
X15057205Y-7998344D01*
X15009586Y-7788820D02*
X14961967Y-7931677D01*
X14961967Y-7931677D02*
X15085777Y-7931677D01*
X15200062Y-7798344D02*
X15219110Y-7798344D01*
X15219110Y-7798344D02*
X15238158Y-7807868D01*
X15238158Y-7807868D02*
X15247682Y-7817391D01*
X15247682Y-7817391D02*
X15257205Y-7836439D01*
X15257205Y-7836439D02*
X15266729Y-7874534D01*
X15266729Y-7874534D02*
X15266729Y-7922153D01*
X15266729Y-7922153D02*
X15257205Y-7960248D01*
X15257205Y-7960248D02*
X15247682Y-7979296D01*
X15247682Y-7979296D02*
X15238158Y-7988820D01*
X15238158Y-7988820D02*
X15219110Y-7998344D01*
X15219110Y-7998344D02*
X15200062Y-7998344D01*
X15200062Y-7998344D02*
X15181015Y-7988820D01*
X15181015Y-7988820D02*
X15171491Y-7979296D01*
X15171491Y-7979296D02*
X15161967Y-7960248D01*
X15161967Y-7960248D02*
X15152443Y-7922153D01*
X15152443Y-7922153D02*
X15152443Y-7874534D01*
X15152443Y-7874534D02*
X15161967Y-7836439D01*
X15161967Y-7836439D02*
X15171491Y-7817391D01*
X15171491Y-7817391D02*
X15181015Y-7807868D01*
X15181015Y-7807868D02*
X15200062Y-7798344D01*
X15390539Y-7798344D02*
X15409586Y-7798344D01*
X15409586Y-7798344D02*
X15428634Y-7807868D01*
X15428634Y-7807868D02*
X15438158Y-7817391D01*
X15438158Y-7817391D02*
X15447682Y-7836439D01*
X15447682Y-7836439D02*
X15457205Y-7874534D01*
X15457205Y-7874534D02*
X15457205Y-7922153D01*
X15457205Y-7922153D02*
X15447682Y-7960248D01*
X15447682Y-7960248D02*
X15438158Y-7979296D01*
X15438158Y-7979296D02*
X15428634Y-7988820D01*
X15428634Y-7988820D02*
X15409586Y-7998344D01*
X15409586Y-7998344D02*
X15390539Y-7998344D01*
X15390539Y-7998344D02*
X15371491Y-7988820D01*
X15371491Y-7988820D02*
X15361967Y-7979296D01*
X15361967Y-7979296D02*
X15352443Y-7960248D01*
X15352443Y-7960248D02*
X15342920Y-7922153D01*
X15342920Y-7922153D02*
X15342920Y-7874534D01*
X15342920Y-7874534D02*
X15352443Y-7836439D01*
X15352443Y-7836439D02*
X15361967Y-7817391D01*
X15361967Y-7817391D02*
X15371491Y-7807868D01*
X15371491Y-7807868D02*
X15390539Y-7798344D01*
X15542920Y-7998344D02*
X15542920Y-7865010D01*
X15542920Y-7884058D02*
X15552443Y-7874534D01*
X15552443Y-7874534D02*
X15571491Y-7865010D01*
X15571491Y-7865010D02*
X15600063Y-7865010D01*
X15600063Y-7865010D02*
X15619110Y-7874534D01*
X15619110Y-7874534D02*
X15628634Y-7893582D01*
X15628634Y-7893582D02*
X15628634Y-7998344D01*
X15628634Y-7893582D02*
X15638158Y-7874534D01*
X15638158Y-7874534D02*
X15657205Y-7865010D01*
X15657205Y-7865010D02*
X15685777Y-7865010D01*
X15685777Y-7865010D02*
X15704824Y-7874534D01*
X15704824Y-7874534D02*
X15714348Y-7893582D01*
X15714348Y-7893582D02*
X15714348Y-7998344D01*
X15809586Y-7998344D02*
X15809586Y-7865010D01*
X15809586Y-7884058D02*
X15819110Y-7874534D01*
X15819110Y-7874534D02*
X15838158Y-7865010D01*
X15838158Y-7865010D02*
X15866729Y-7865010D01*
X15866729Y-7865010D02*
X15885777Y-7874534D01*
X15885777Y-7874534D02*
X15895301Y-7893582D01*
X15895301Y-7893582D02*
X15895301Y-7998344D01*
X15895301Y-7893582D02*
X15904824Y-7874534D01*
X15904824Y-7874534D02*
X15923872Y-7865010D01*
X15923872Y-7865010D02*
X15952443Y-7865010D01*
X15952443Y-7865010D02*
X15971491Y-7874534D01*
X15971491Y-7874534D02*
X15981015Y-7893582D01*
X15981015Y-7893582D02*
X15981015Y-7998344D01*
X16371491Y-7788820D02*
X16200063Y-8045963D01*
X16628634Y-7798344D02*
X16647682Y-7798344D01*
X16647682Y-7798344D02*
X16666729Y-7807868D01*
X16666729Y-7807868D02*
X16676253Y-7817391D01*
X16676253Y-7817391D02*
X16685777Y-7836439D01*
X16685777Y-7836439D02*
X16695301Y-7874534D01*
X16695301Y-7874534D02*
X16695301Y-7922153D01*
X16695301Y-7922153D02*
X16685777Y-7960248D01*
X16685777Y-7960248D02*
X16676253Y-7979296D01*
X16676253Y-7979296D02*
X16666729Y-7988820D01*
X16666729Y-7988820D02*
X16647682Y-7998344D01*
X16647682Y-7998344D02*
X16628634Y-7998344D01*
X16628634Y-7998344D02*
X16609586Y-7988820D01*
X16609586Y-7988820D02*
X16600063Y-7979296D01*
X16600063Y-7979296D02*
X16590539Y-7960248D01*
X16590539Y-7960248D02*
X16581015Y-7922153D01*
X16581015Y-7922153D02*
X16581015Y-7874534D01*
X16581015Y-7874534D02*
X16590539Y-7836439D01*
X16590539Y-7836439D02*
X16600063Y-7817391D01*
X16600063Y-7817391D02*
X16609586Y-7807868D01*
X16609586Y-7807868D02*
X16628634Y-7798344D01*
X16781015Y-7979296D02*
X16790539Y-7988820D01*
X16790539Y-7988820D02*
X16781015Y-7998344D01*
X16781015Y-7998344D02*
X16771491Y-7988820D01*
X16771491Y-7988820D02*
X16781015Y-7979296D01*
X16781015Y-7979296D02*
X16781015Y-7998344D01*
X16914348Y-7798344D02*
X16933396Y-7798344D01*
X16933396Y-7798344D02*
X16952444Y-7807868D01*
X16952444Y-7807868D02*
X16961968Y-7817391D01*
X16961968Y-7817391D02*
X16971491Y-7836439D01*
X16971491Y-7836439D02*
X16981015Y-7874534D01*
X16981015Y-7874534D02*
X16981015Y-7922153D01*
X16981015Y-7922153D02*
X16971491Y-7960248D01*
X16971491Y-7960248D02*
X16961968Y-7979296D01*
X16961968Y-7979296D02*
X16952444Y-7988820D01*
X16952444Y-7988820D02*
X16933396Y-7998344D01*
X16933396Y-7998344D02*
X16914348Y-7998344D01*
X16914348Y-7998344D02*
X16895301Y-7988820D01*
X16895301Y-7988820D02*
X16885777Y-7979296D01*
X16885777Y-7979296D02*
X16876253Y-7960248D01*
X16876253Y-7960248D02*
X16866729Y-7922153D01*
X16866729Y-7922153D02*
X16866729Y-7874534D01*
X16866729Y-7874534D02*
X16876253Y-7836439D01*
X16876253Y-7836439D02*
X16885777Y-7817391D01*
X16885777Y-7817391D02*
X16895301Y-7807868D01*
X16895301Y-7807868D02*
X16914348Y-7798344D01*
X17171491Y-7998344D02*
X17057206Y-7998344D01*
X17114348Y-7998344D02*
X17114348Y-7798344D01*
X17114348Y-7798344D02*
X17095301Y-7826915D01*
X17095301Y-7826915D02*
X17076253Y-7845963D01*
X17076253Y-7845963D02*
X17057206Y-7855487D01*
X17352444Y-7798344D02*
X17257206Y-7798344D01*
X17257206Y-7798344D02*
X17247682Y-7893582D01*
X17247682Y-7893582D02*
X17257206Y-7884058D01*
X17257206Y-7884058D02*
X17276253Y-7874534D01*
X17276253Y-7874534D02*
X17323872Y-7874534D01*
X17323872Y-7874534D02*
X17342920Y-7884058D01*
X17342920Y-7884058D02*
X17352444Y-7893582D01*
X17352444Y-7893582D02*
X17361968Y-7912629D01*
X17361968Y-7912629D02*
X17361968Y-7960248D01*
X17361968Y-7960248D02*
X17352444Y-7979296D01*
X17352444Y-7979296D02*
X17342920Y-7988820D01*
X17342920Y-7988820D02*
X17323872Y-7998344D01*
X17323872Y-7998344D02*
X17276253Y-7998344D01*
X17276253Y-7998344D02*
X17257206Y-7988820D01*
X17257206Y-7988820D02*
X17247682Y-7979296D01*
X17428634Y-7798344D02*
X17561968Y-7798344D01*
X17561968Y-7798344D02*
X17476253Y-7998344D01*
X17628634Y-7798344D02*
X17628634Y-7836439D01*
X17704825Y-7798344D02*
X17704825Y-7836439D01*
X18000063Y-8074534D02*
X17990539Y-8065010D01*
X17990539Y-8065010D02*
X17971491Y-8036439D01*
X17971491Y-8036439D02*
X17961968Y-8017391D01*
X17961968Y-8017391D02*
X17952444Y-7988820D01*
X17952444Y-7988820D02*
X17942920Y-7941201D01*
X17942920Y-7941201D02*
X17942920Y-7903106D01*
X17942920Y-7903106D02*
X17952444Y-7855487D01*
X17952444Y-7855487D02*
X17961968Y-7826915D01*
X17961968Y-7826915D02*
X17971491Y-7807868D01*
X17971491Y-7807868D02*
X17990539Y-7779296D01*
X17990539Y-7779296D02*
X18000063Y-7769772D01*
X18181015Y-7998344D02*
X18066730Y-7998344D01*
X18123872Y-7998344D02*
X18123872Y-7798344D01*
X18123872Y-7798344D02*
X18104825Y-7826915D01*
X18104825Y-7826915D02*
X18085777Y-7845963D01*
X18085777Y-7845963D02*
X18066730Y-7855487D01*
X18304825Y-7798344D02*
X18323872Y-7798344D01*
X18323872Y-7798344D02*
X18342920Y-7807868D01*
X18342920Y-7807868D02*
X18352444Y-7817391D01*
X18352444Y-7817391D02*
X18361968Y-7836439D01*
X18361968Y-7836439D02*
X18371491Y-7874534D01*
X18371491Y-7874534D02*
X18371491Y-7922153D01*
X18371491Y-7922153D02*
X18361968Y-7960248D01*
X18361968Y-7960248D02*
X18352444Y-7979296D01*
X18352444Y-7979296D02*
X18342920Y-7988820D01*
X18342920Y-7988820D02*
X18323872Y-7998344D01*
X18323872Y-7998344D02*
X18304825Y-7998344D01*
X18304825Y-7998344D02*
X18285777Y-7988820D01*
X18285777Y-7988820D02*
X18276253Y-7979296D01*
X18276253Y-7979296D02*
X18266730Y-7960248D01*
X18266730Y-7960248D02*
X18257206Y-7922153D01*
X18257206Y-7922153D02*
X18257206Y-7874534D01*
X18257206Y-7874534D02*
X18266730Y-7836439D01*
X18266730Y-7836439D02*
X18276253Y-7817391D01*
X18276253Y-7817391D02*
X18285777Y-7807868D01*
X18285777Y-7807868D02*
X18304825Y-7798344D01*
X18609587Y-7998344D02*
X18609587Y-7798344D01*
X18695301Y-7998344D02*
X18695301Y-7893582D01*
X18695301Y-7893582D02*
X18685777Y-7874534D01*
X18685777Y-7874534D02*
X18666730Y-7865010D01*
X18666730Y-7865010D02*
X18638158Y-7865010D01*
X18638158Y-7865010D02*
X18619111Y-7874534D01*
X18619111Y-7874534D02*
X18609587Y-7884058D01*
X18819111Y-7998344D02*
X18800063Y-7988820D01*
X18800063Y-7988820D02*
X18790539Y-7979296D01*
X18790539Y-7979296D02*
X18781015Y-7960248D01*
X18781015Y-7960248D02*
X18781015Y-7903106D01*
X18781015Y-7903106D02*
X18790539Y-7884058D01*
X18790539Y-7884058D02*
X18800063Y-7874534D01*
X18800063Y-7874534D02*
X18819111Y-7865010D01*
X18819111Y-7865010D02*
X18847682Y-7865010D01*
X18847682Y-7865010D02*
X18866730Y-7874534D01*
X18866730Y-7874534D02*
X18876253Y-7884058D01*
X18876253Y-7884058D02*
X18885777Y-7903106D01*
X18885777Y-7903106D02*
X18885777Y-7960248D01*
X18885777Y-7960248D02*
X18876253Y-7979296D01*
X18876253Y-7979296D02*
X18866730Y-7988820D01*
X18866730Y-7988820D02*
X18847682Y-7998344D01*
X18847682Y-7998344D02*
X18819111Y-7998344D01*
X19000063Y-7998344D02*
X18981015Y-7988820D01*
X18981015Y-7988820D02*
X18971492Y-7969772D01*
X18971492Y-7969772D02*
X18971492Y-7798344D01*
X19152444Y-7988820D02*
X19133396Y-7998344D01*
X19133396Y-7998344D02*
X19095301Y-7998344D01*
X19095301Y-7998344D02*
X19076253Y-7988820D01*
X19076253Y-7988820D02*
X19066730Y-7969772D01*
X19066730Y-7969772D02*
X19066730Y-7893582D01*
X19066730Y-7893582D02*
X19076253Y-7874534D01*
X19076253Y-7874534D02*
X19095301Y-7865010D01*
X19095301Y-7865010D02*
X19133396Y-7865010D01*
X19133396Y-7865010D02*
X19152444Y-7874534D01*
X19152444Y-7874534D02*
X19161968Y-7893582D01*
X19161968Y-7893582D02*
X19161968Y-7912629D01*
X19161968Y-7912629D02*
X19066730Y-7931677D01*
X19238158Y-7988820D02*
X19257206Y-7998344D01*
X19257206Y-7998344D02*
X19295301Y-7998344D01*
X19295301Y-7998344D02*
X19314349Y-7988820D01*
X19314349Y-7988820D02*
X19323873Y-7969772D01*
X19323873Y-7969772D02*
X19323873Y-7960248D01*
X19323873Y-7960248D02*
X19314349Y-7941201D01*
X19314349Y-7941201D02*
X19295301Y-7931677D01*
X19295301Y-7931677D02*
X19266730Y-7931677D01*
X19266730Y-7931677D02*
X19247682Y-7922153D01*
X19247682Y-7922153D02*
X19238158Y-7903106D01*
X19238158Y-7903106D02*
X19238158Y-7893582D01*
X19238158Y-7893582D02*
X19247682Y-7874534D01*
X19247682Y-7874534D02*
X19266730Y-7865010D01*
X19266730Y-7865010D02*
X19295301Y-7865010D01*
X19295301Y-7865010D02*
X19314349Y-7874534D01*
X19390539Y-8074534D02*
X19400063Y-8065010D01*
X19400063Y-8065010D02*
X19419111Y-8036439D01*
X19419111Y-8036439D02*
X19428634Y-8017391D01*
X19428634Y-8017391D02*
X19438158Y-7988820D01*
X19438158Y-7988820D02*
X19447682Y-7941201D01*
X19447682Y-7941201D02*
X19447682Y-7903106D01*
X19447682Y-7903106D02*
X19438158Y-7855487D01*
X19438158Y-7855487D02*
X19428634Y-7826915D01*
X19428634Y-7826915D02*
X19419111Y-7807868D01*
X19419111Y-7807868D02*
X19400063Y-7779296D01*
X19400063Y-7779296D02*
X19390539Y-7769772D01*
D13*
X14425000Y-8170860D02*
G75*
G03*
X14425000Y-8170860I-40000J0D01*
G01*
D11*
X14723872Y-8062344D02*
X14742920Y-8062344D01*
X14742920Y-8062344D02*
X14761967Y-8071868D01*
X14761967Y-8071868D02*
X14771491Y-8081391D01*
X14771491Y-8081391D02*
X14781015Y-8100439D01*
X14781015Y-8100439D02*
X14790539Y-8138534D01*
X14790539Y-8138534D02*
X14790539Y-8186153D01*
X14790539Y-8186153D02*
X14781015Y-8224248D01*
X14781015Y-8224248D02*
X14771491Y-8243296D01*
X14771491Y-8243296D02*
X14761967Y-8252820D01*
X14761967Y-8252820D02*
X14742920Y-8262344D01*
X14742920Y-8262344D02*
X14723872Y-8262344D01*
X14723872Y-8262344D02*
X14704824Y-8252820D01*
X14704824Y-8252820D02*
X14695301Y-8243296D01*
X14695301Y-8243296D02*
X14685777Y-8224248D01*
X14685777Y-8224248D02*
X14676253Y-8186153D01*
X14676253Y-8186153D02*
X14676253Y-8138534D01*
X14676253Y-8138534D02*
X14685777Y-8100439D01*
X14685777Y-8100439D02*
X14695301Y-8081391D01*
X14695301Y-8081391D02*
X14704824Y-8071868D01*
X14704824Y-8071868D02*
X14723872Y-8062344D01*
X14876253Y-8243296D02*
X14885777Y-8252820D01*
X14885777Y-8252820D02*
X14876253Y-8262344D01*
X14876253Y-8262344D02*
X14866729Y-8252820D01*
X14866729Y-8252820D02*
X14876253Y-8243296D01*
X14876253Y-8243296D02*
X14876253Y-8262344D01*
X15000062Y-8148058D02*
X14981015Y-8138534D01*
X14981015Y-8138534D02*
X14971491Y-8129010D01*
X14971491Y-8129010D02*
X14961967Y-8109963D01*
X14961967Y-8109963D02*
X14961967Y-8100439D01*
X14961967Y-8100439D02*
X14971491Y-8081391D01*
X14971491Y-8081391D02*
X14981015Y-8071868D01*
X14981015Y-8071868D02*
X15000062Y-8062344D01*
X15000062Y-8062344D02*
X15038158Y-8062344D01*
X15038158Y-8062344D02*
X15057205Y-8071868D01*
X15057205Y-8071868D02*
X15066729Y-8081391D01*
X15066729Y-8081391D02*
X15076253Y-8100439D01*
X15076253Y-8100439D02*
X15076253Y-8109963D01*
X15076253Y-8109963D02*
X15066729Y-8129010D01*
X15066729Y-8129010D02*
X15057205Y-8138534D01*
X15057205Y-8138534D02*
X15038158Y-8148058D01*
X15038158Y-8148058D02*
X15000062Y-8148058D01*
X15000062Y-8148058D02*
X14981015Y-8157582D01*
X14981015Y-8157582D02*
X14971491Y-8167106D01*
X14971491Y-8167106D02*
X14961967Y-8186153D01*
X14961967Y-8186153D02*
X14961967Y-8224248D01*
X14961967Y-8224248D02*
X14971491Y-8243296D01*
X14971491Y-8243296D02*
X14981015Y-8252820D01*
X14981015Y-8252820D02*
X15000062Y-8262344D01*
X15000062Y-8262344D02*
X15038158Y-8262344D01*
X15038158Y-8262344D02*
X15057205Y-8252820D01*
X15057205Y-8252820D02*
X15066729Y-8243296D01*
X15066729Y-8243296D02*
X15076253Y-8224248D01*
X15076253Y-8224248D02*
X15076253Y-8186153D01*
X15076253Y-8186153D02*
X15066729Y-8167106D01*
X15066729Y-8167106D02*
X15057205Y-8157582D01*
X15057205Y-8157582D02*
X15038158Y-8148058D01*
X15200062Y-8062344D02*
X15219110Y-8062344D01*
X15219110Y-8062344D02*
X15238158Y-8071868D01*
X15238158Y-8071868D02*
X15247682Y-8081391D01*
X15247682Y-8081391D02*
X15257205Y-8100439D01*
X15257205Y-8100439D02*
X15266729Y-8138534D01*
X15266729Y-8138534D02*
X15266729Y-8186153D01*
X15266729Y-8186153D02*
X15257205Y-8224248D01*
X15257205Y-8224248D02*
X15247682Y-8243296D01*
X15247682Y-8243296D02*
X15238158Y-8252820D01*
X15238158Y-8252820D02*
X15219110Y-8262344D01*
X15219110Y-8262344D02*
X15200062Y-8262344D01*
X15200062Y-8262344D02*
X15181015Y-8252820D01*
X15181015Y-8252820D02*
X15171491Y-8243296D01*
X15171491Y-8243296D02*
X15161967Y-8224248D01*
X15161967Y-8224248D02*
X15152443Y-8186153D01*
X15152443Y-8186153D02*
X15152443Y-8138534D01*
X15152443Y-8138534D02*
X15161967Y-8100439D01*
X15161967Y-8100439D02*
X15171491Y-8081391D01*
X15171491Y-8081391D02*
X15181015Y-8071868D01*
X15181015Y-8071868D02*
X15200062Y-8062344D01*
X15390539Y-8062344D02*
X15409586Y-8062344D01*
X15409586Y-8062344D02*
X15428634Y-8071868D01*
X15428634Y-8071868D02*
X15438158Y-8081391D01*
X15438158Y-8081391D02*
X15447682Y-8100439D01*
X15447682Y-8100439D02*
X15457205Y-8138534D01*
X15457205Y-8138534D02*
X15457205Y-8186153D01*
X15457205Y-8186153D02*
X15447682Y-8224248D01*
X15447682Y-8224248D02*
X15438158Y-8243296D01*
X15438158Y-8243296D02*
X15428634Y-8252820D01*
X15428634Y-8252820D02*
X15409586Y-8262344D01*
X15409586Y-8262344D02*
X15390539Y-8262344D01*
X15390539Y-8262344D02*
X15371491Y-8252820D01*
X15371491Y-8252820D02*
X15361967Y-8243296D01*
X15361967Y-8243296D02*
X15352443Y-8224248D01*
X15352443Y-8224248D02*
X15342920Y-8186153D01*
X15342920Y-8186153D02*
X15342920Y-8138534D01*
X15342920Y-8138534D02*
X15352443Y-8100439D01*
X15352443Y-8100439D02*
X15361967Y-8081391D01*
X15361967Y-8081391D02*
X15371491Y-8071868D01*
X15371491Y-8071868D02*
X15390539Y-8062344D01*
X15542920Y-8262344D02*
X15542920Y-8129010D01*
X15542920Y-8148058D02*
X15552443Y-8138534D01*
X15552443Y-8138534D02*
X15571491Y-8129010D01*
X15571491Y-8129010D02*
X15600063Y-8129010D01*
X15600063Y-8129010D02*
X15619110Y-8138534D01*
X15619110Y-8138534D02*
X15628634Y-8157582D01*
X15628634Y-8157582D02*
X15628634Y-8262344D01*
X15628634Y-8157582D02*
X15638158Y-8138534D01*
X15638158Y-8138534D02*
X15657205Y-8129010D01*
X15657205Y-8129010D02*
X15685777Y-8129010D01*
X15685777Y-8129010D02*
X15704824Y-8138534D01*
X15704824Y-8138534D02*
X15714348Y-8157582D01*
X15714348Y-8157582D02*
X15714348Y-8262344D01*
X15809586Y-8262344D02*
X15809586Y-8129010D01*
X15809586Y-8148058D02*
X15819110Y-8138534D01*
X15819110Y-8138534D02*
X15838158Y-8129010D01*
X15838158Y-8129010D02*
X15866729Y-8129010D01*
X15866729Y-8129010D02*
X15885777Y-8138534D01*
X15885777Y-8138534D02*
X15895301Y-8157582D01*
X15895301Y-8157582D02*
X15895301Y-8262344D01*
X15895301Y-8157582D02*
X15904824Y-8138534D01*
X15904824Y-8138534D02*
X15923872Y-8129010D01*
X15923872Y-8129010D02*
X15952443Y-8129010D01*
X15952443Y-8129010D02*
X15971491Y-8138534D01*
X15971491Y-8138534D02*
X15981015Y-8157582D01*
X15981015Y-8157582D02*
X15981015Y-8262344D01*
X16371491Y-8052820D02*
X16200063Y-8309963D01*
X16628634Y-8062344D02*
X16647682Y-8062344D01*
X16647682Y-8062344D02*
X16666729Y-8071868D01*
X16666729Y-8071868D02*
X16676253Y-8081391D01*
X16676253Y-8081391D02*
X16685777Y-8100439D01*
X16685777Y-8100439D02*
X16695301Y-8138534D01*
X16695301Y-8138534D02*
X16695301Y-8186153D01*
X16695301Y-8186153D02*
X16685777Y-8224248D01*
X16685777Y-8224248D02*
X16676253Y-8243296D01*
X16676253Y-8243296D02*
X16666729Y-8252820D01*
X16666729Y-8252820D02*
X16647682Y-8262344D01*
X16647682Y-8262344D02*
X16628634Y-8262344D01*
X16628634Y-8262344D02*
X16609586Y-8252820D01*
X16609586Y-8252820D02*
X16600063Y-8243296D01*
X16600063Y-8243296D02*
X16590539Y-8224248D01*
X16590539Y-8224248D02*
X16581015Y-8186153D01*
X16581015Y-8186153D02*
X16581015Y-8138534D01*
X16581015Y-8138534D02*
X16590539Y-8100439D01*
X16590539Y-8100439D02*
X16600063Y-8081391D01*
X16600063Y-8081391D02*
X16609586Y-8071868D01*
X16609586Y-8071868D02*
X16628634Y-8062344D01*
X16781015Y-8243296D02*
X16790539Y-8252820D01*
X16790539Y-8252820D02*
X16781015Y-8262344D01*
X16781015Y-8262344D02*
X16771491Y-8252820D01*
X16771491Y-8252820D02*
X16781015Y-8243296D01*
X16781015Y-8243296D02*
X16781015Y-8262344D01*
X16914348Y-8062344D02*
X16933396Y-8062344D01*
X16933396Y-8062344D02*
X16952444Y-8071868D01*
X16952444Y-8071868D02*
X16961968Y-8081391D01*
X16961968Y-8081391D02*
X16971491Y-8100439D01*
X16971491Y-8100439D02*
X16981015Y-8138534D01*
X16981015Y-8138534D02*
X16981015Y-8186153D01*
X16981015Y-8186153D02*
X16971491Y-8224248D01*
X16971491Y-8224248D02*
X16961968Y-8243296D01*
X16961968Y-8243296D02*
X16952444Y-8252820D01*
X16952444Y-8252820D02*
X16933396Y-8262344D01*
X16933396Y-8262344D02*
X16914348Y-8262344D01*
X16914348Y-8262344D02*
X16895301Y-8252820D01*
X16895301Y-8252820D02*
X16885777Y-8243296D01*
X16885777Y-8243296D02*
X16876253Y-8224248D01*
X16876253Y-8224248D02*
X16866729Y-8186153D01*
X16866729Y-8186153D02*
X16866729Y-8138534D01*
X16866729Y-8138534D02*
X16876253Y-8100439D01*
X16876253Y-8100439D02*
X16885777Y-8081391D01*
X16885777Y-8081391D02*
X16895301Y-8071868D01*
X16895301Y-8071868D02*
X16914348Y-8062344D01*
X17047682Y-8062344D02*
X17171491Y-8062344D01*
X17171491Y-8062344D02*
X17104825Y-8138534D01*
X17104825Y-8138534D02*
X17133396Y-8138534D01*
X17133396Y-8138534D02*
X17152444Y-8148058D01*
X17152444Y-8148058D02*
X17161968Y-8157582D01*
X17161968Y-8157582D02*
X17171491Y-8176629D01*
X17171491Y-8176629D02*
X17171491Y-8224248D01*
X17171491Y-8224248D02*
X17161968Y-8243296D01*
X17161968Y-8243296D02*
X17152444Y-8252820D01*
X17152444Y-8252820D02*
X17133396Y-8262344D01*
X17133396Y-8262344D02*
X17076253Y-8262344D01*
X17076253Y-8262344D02*
X17057206Y-8252820D01*
X17057206Y-8252820D02*
X17047682Y-8243296D01*
X17361968Y-8262344D02*
X17247682Y-8262344D01*
X17304825Y-8262344D02*
X17304825Y-8062344D01*
X17304825Y-8062344D02*
X17285777Y-8090915D01*
X17285777Y-8090915D02*
X17266729Y-8109963D01*
X17266729Y-8109963D02*
X17247682Y-8119487D01*
X17542920Y-8062344D02*
X17447682Y-8062344D01*
X17447682Y-8062344D02*
X17438158Y-8157582D01*
X17438158Y-8157582D02*
X17447682Y-8148058D01*
X17447682Y-8148058D02*
X17466729Y-8138534D01*
X17466729Y-8138534D02*
X17514349Y-8138534D01*
X17514349Y-8138534D02*
X17533396Y-8148058D01*
X17533396Y-8148058D02*
X17542920Y-8157582D01*
X17542920Y-8157582D02*
X17552444Y-8176629D01*
X17552444Y-8176629D02*
X17552444Y-8224248D01*
X17552444Y-8224248D02*
X17542920Y-8243296D01*
X17542920Y-8243296D02*
X17533396Y-8252820D01*
X17533396Y-8252820D02*
X17514349Y-8262344D01*
X17514349Y-8262344D02*
X17466729Y-8262344D01*
X17466729Y-8262344D02*
X17447682Y-8252820D01*
X17447682Y-8252820D02*
X17438158Y-8243296D01*
X17628634Y-8062344D02*
X17628634Y-8100439D01*
X17704825Y-8062344D02*
X17704825Y-8100439D01*
X18000063Y-8338534D02*
X17990539Y-8329010D01*
X17990539Y-8329010D02*
X17971491Y-8300439D01*
X17971491Y-8300439D02*
X17961968Y-8281391D01*
X17961968Y-8281391D02*
X17952444Y-8252820D01*
X17952444Y-8252820D02*
X17942920Y-8205201D01*
X17942920Y-8205201D02*
X17942920Y-8167106D01*
X17942920Y-8167106D02*
X17952444Y-8119487D01*
X17952444Y-8119487D02*
X17961968Y-8090915D01*
X17961968Y-8090915D02*
X17971491Y-8071868D01*
X17971491Y-8071868D02*
X17990539Y-8043296D01*
X17990539Y-8043296D02*
X18000063Y-8033772D01*
X18057206Y-8062344D02*
X18181015Y-8062344D01*
X18181015Y-8062344D02*
X18114349Y-8138534D01*
X18114349Y-8138534D02*
X18142920Y-8138534D01*
X18142920Y-8138534D02*
X18161968Y-8148058D01*
X18161968Y-8148058D02*
X18171491Y-8157582D01*
X18171491Y-8157582D02*
X18181015Y-8176629D01*
X18181015Y-8176629D02*
X18181015Y-8224248D01*
X18181015Y-8224248D02*
X18171491Y-8243296D01*
X18171491Y-8243296D02*
X18161968Y-8252820D01*
X18161968Y-8252820D02*
X18142920Y-8262344D01*
X18142920Y-8262344D02*
X18085777Y-8262344D01*
X18085777Y-8262344D02*
X18066730Y-8252820D01*
X18066730Y-8252820D02*
X18057206Y-8243296D01*
X18352444Y-8062344D02*
X18314349Y-8062344D01*
X18314349Y-8062344D02*
X18295301Y-8071868D01*
X18295301Y-8071868D02*
X18285777Y-8081391D01*
X18285777Y-8081391D02*
X18266730Y-8109963D01*
X18266730Y-8109963D02*
X18257206Y-8148058D01*
X18257206Y-8148058D02*
X18257206Y-8224248D01*
X18257206Y-8224248D02*
X18266730Y-8243296D01*
X18266730Y-8243296D02*
X18276253Y-8252820D01*
X18276253Y-8252820D02*
X18295301Y-8262344D01*
X18295301Y-8262344D02*
X18333396Y-8262344D01*
X18333396Y-8262344D02*
X18352444Y-8252820D01*
X18352444Y-8252820D02*
X18361968Y-8243296D01*
X18361968Y-8243296D02*
X18371491Y-8224248D01*
X18371491Y-8224248D02*
X18371491Y-8176629D01*
X18371491Y-8176629D02*
X18361968Y-8157582D01*
X18361968Y-8157582D02*
X18352444Y-8148058D01*
X18352444Y-8148058D02*
X18333396Y-8138534D01*
X18333396Y-8138534D02*
X18295301Y-8138534D01*
X18295301Y-8138534D02*
X18276253Y-8148058D01*
X18276253Y-8148058D02*
X18266730Y-8157582D01*
X18266730Y-8157582D02*
X18257206Y-8176629D01*
X18609587Y-8262344D02*
X18609587Y-8062344D01*
X18695301Y-8262344D02*
X18695301Y-8157582D01*
X18695301Y-8157582D02*
X18685777Y-8138534D01*
X18685777Y-8138534D02*
X18666730Y-8129010D01*
X18666730Y-8129010D02*
X18638158Y-8129010D01*
X18638158Y-8129010D02*
X18619111Y-8138534D01*
X18619111Y-8138534D02*
X18609587Y-8148058D01*
X18819111Y-8262344D02*
X18800063Y-8252820D01*
X18800063Y-8252820D02*
X18790539Y-8243296D01*
X18790539Y-8243296D02*
X18781015Y-8224248D01*
X18781015Y-8224248D02*
X18781015Y-8167106D01*
X18781015Y-8167106D02*
X18790539Y-8148058D01*
X18790539Y-8148058D02*
X18800063Y-8138534D01*
X18800063Y-8138534D02*
X18819111Y-8129010D01*
X18819111Y-8129010D02*
X18847682Y-8129010D01*
X18847682Y-8129010D02*
X18866730Y-8138534D01*
X18866730Y-8138534D02*
X18876253Y-8148058D01*
X18876253Y-8148058D02*
X18885777Y-8167106D01*
X18885777Y-8167106D02*
X18885777Y-8224248D01*
X18885777Y-8224248D02*
X18876253Y-8243296D01*
X18876253Y-8243296D02*
X18866730Y-8252820D01*
X18866730Y-8252820D02*
X18847682Y-8262344D01*
X18847682Y-8262344D02*
X18819111Y-8262344D01*
X19000063Y-8262344D02*
X18981015Y-8252820D01*
X18981015Y-8252820D02*
X18971492Y-8233772D01*
X18971492Y-8233772D02*
X18971492Y-8062344D01*
X19152444Y-8252820D02*
X19133396Y-8262344D01*
X19133396Y-8262344D02*
X19095301Y-8262344D01*
X19095301Y-8262344D02*
X19076253Y-8252820D01*
X19076253Y-8252820D02*
X19066730Y-8233772D01*
X19066730Y-8233772D02*
X19066730Y-8157582D01*
X19066730Y-8157582D02*
X19076253Y-8138534D01*
X19076253Y-8138534D02*
X19095301Y-8129010D01*
X19095301Y-8129010D02*
X19133396Y-8129010D01*
X19133396Y-8129010D02*
X19152444Y-8138534D01*
X19152444Y-8138534D02*
X19161968Y-8157582D01*
X19161968Y-8157582D02*
X19161968Y-8176629D01*
X19161968Y-8176629D02*
X19066730Y-8195677D01*
X19238158Y-8252820D02*
X19257206Y-8262344D01*
X19257206Y-8262344D02*
X19295301Y-8262344D01*
X19295301Y-8262344D02*
X19314349Y-8252820D01*
X19314349Y-8252820D02*
X19323873Y-8233772D01*
X19323873Y-8233772D02*
X19323873Y-8224248D01*
X19323873Y-8224248D02*
X19314349Y-8205201D01*
X19314349Y-8205201D02*
X19295301Y-8195677D01*
X19295301Y-8195677D02*
X19266730Y-8195677D01*
X19266730Y-8195677D02*
X19247682Y-8186153D01*
X19247682Y-8186153D02*
X19238158Y-8167106D01*
X19238158Y-8167106D02*
X19238158Y-8157582D01*
X19238158Y-8157582D02*
X19247682Y-8138534D01*
X19247682Y-8138534D02*
X19266730Y-8129010D01*
X19266730Y-8129010D02*
X19295301Y-8129010D01*
X19295301Y-8129010D02*
X19314349Y-8138534D01*
X19390539Y-8338534D02*
X19400063Y-8329010D01*
X19400063Y-8329010D02*
X19419111Y-8300439D01*
X19419111Y-8300439D02*
X19428634Y-8281391D01*
X19428634Y-8281391D02*
X19438158Y-8252820D01*
X19438158Y-8252820D02*
X19447682Y-8205201D01*
X19447682Y-8205201D02*
X19447682Y-8167106D01*
X19447682Y-8167106D02*
X19438158Y-8119487D01*
X19438158Y-8119487D02*
X19428634Y-8090915D01*
X19428634Y-8090915D02*
X19419111Y-8071868D01*
X19419111Y-8071868D02*
X19400063Y-8043296D01*
X19400063Y-8043296D02*
X19390539Y-8033772D01*
D10*
X14375000Y-8384860D02*
X14375000Y-8484860D01*
X14325000Y-8434860D02*
X14425000Y-8434860D01*
D11*
X14790539Y-8526344D02*
X14676253Y-8526344D01*
X14733396Y-8526344D02*
X14733396Y-8326344D01*
X14733396Y-8326344D02*
X14714348Y-8354915D01*
X14714348Y-8354915D02*
X14695301Y-8373963D01*
X14695301Y-8373963D02*
X14676253Y-8383487D01*
X14876253Y-8507296D02*
X14885777Y-8516820D01*
X14885777Y-8516820D02*
X14876253Y-8526344D01*
X14876253Y-8526344D02*
X14866729Y-8516820D01*
X14866729Y-8516820D02*
X14876253Y-8507296D01*
X14876253Y-8507296D02*
X14876253Y-8526344D01*
X15009586Y-8326344D02*
X15028634Y-8326344D01*
X15028634Y-8326344D02*
X15047682Y-8335868D01*
X15047682Y-8335868D02*
X15057205Y-8345391D01*
X15057205Y-8345391D02*
X15066729Y-8364439D01*
X15066729Y-8364439D02*
X15076253Y-8402534D01*
X15076253Y-8402534D02*
X15076253Y-8450153D01*
X15076253Y-8450153D02*
X15066729Y-8488249D01*
X15066729Y-8488249D02*
X15057205Y-8507296D01*
X15057205Y-8507296D02*
X15047682Y-8516820D01*
X15047682Y-8516820D02*
X15028634Y-8526344D01*
X15028634Y-8526344D02*
X15009586Y-8526344D01*
X15009586Y-8526344D02*
X14990539Y-8516820D01*
X14990539Y-8516820D02*
X14981015Y-8507296D01*
X14981015Y-8507296D02*
X14971491Y-8488249D01*
X14971491Y-8488249D02*
X14961967Y-8450153D01*
X14961967Y-8450153D02*
X14961967Y-8402534D01*
X14961967Y-8402534D02*
X14971491Y-8364439D01*
X14971491Y-8364439D02*
X14981015Y-8345391D01*
X14981015Y-8345391D02*
X14990539Y-8335868D01*
X14990539Y-8335868D02*
X15009586Y-8326344D01*
X15200062Y-8326344D02*
X15219110Y-8326344D01*
X15219110Y-8326344D02*
X15238158Y-8335868D01*
X15238158Y-8335868D02*
X15247682Y-8345391D01*
X15247682Y-8345391D02*
X15257205Y-8364439D01*
X15257205Y-8364439D02*
X15266729Y-8402534D01*
X15266729Y-8402534D02*
X15266729Y-8450153D01*
X15266729Y-8450153D02*
X15257205Y-8488249D01*
X15257205Y-8488249D02*
X15247682Y-8507296D01*
X15247682Y-8507296D02*
X15238158Y-8516820D01*
X15238158Y-8516820D02*
X15219110Y-8526344D01*
X15219110Y-8526344D02*
X15200062Y-8526344D01*
X15200062Y-8526344D02*
X15181015Y-8516820D01*
X15181015Y-8516820D02*
X15171491Y-8507296D01*
X15171491Y-8507296D02*
X15161967Y-8488249D01*
X15161967Y-8488249D02*
X15152443Y-8450153D01*
X15152443Y-8450153D02*
X15152443Y-8402534D01*
X15152443Y-8402534D02*
X15161967Y-8364439D01*
X15161967Y-8364439D02*
X15171491Y-8345391D01*
X15171491Y-8345391D02*
X15181015Y-8335868D01*
X15181015Y-8335868D02*
X15200062Y-8326344D01*
X15390539Y-8326344D02*
X15409586Y-8326344D01*
X15409586Y-8326344D02*
X15428634Y-8335868D01*
X15428634Y-8335868D02*
X15438158Y-8345391D01*
X15438158Y-8345391D02*
X15447682Y-8364439D01*
X15447682Y-8364439D02*
X15457205Y-8402534D01*
X15457205Y-8402534D02*
X15457205Y-8450153D01*
X15457205Y-8450153D02*
X15447682Y-8488249D01*
X15447682Y-8488249D02*
X15438158Y-8507296D01*
X15438158Y-8507296D02*
X15428634Y-8516820D01*
X15428634Y-8516820D02*
X15409586Y-8526344D01*
X15409586Y-8526344D02*
X15390539Y-8526344D01*
X15390539Y-8526344D02*
X15371491Y-8516820D01*
X15371491Y-8516820D02*
X15361967Y-8507296D01*
X15361967Y-8507296D02*
X15352443Y-8488249D01*
X15352443Y-8488249D02*
X15342920Y-8450153D01*
X15342920Y-8450153D02*
X15342920Y-8402534D01*
X15342920Y-8402534D02*
X15352443Y-8364439D01*
X15352443Y-8364439D02*
X15361967Y-8345391D01*
X15361967Y-8345391D02*
X15371491Y-8335868D01*
X15371491Y-8335868D02*
X15390539Y-8326344D01*
X15542920Y-8526344D02*
X15542920Y-8393010D01*
X15542920Y-8412058D02*
X15552443Y-8402534D01*
X15552443Y-8402534D02*
X15571491Y-8393010D01*
X15571491Y-8393010D02*
X15600063Y-8393010D01*
X15600063Y-8393010D02*
X15619110Y-8402534D01*
X15619110Y-8402534D02*
X15628634Y-8421582D01*
X15628634Y-8421582D02*
X15628634Y-8526344D01*
X15628634Y-8421582D02*
X15638158Y-8402534D01*
X15638158Y-8402534D02*
X15657205Y-8393010D01*
X15657205Y-8393010D02*
X15685777Y-8393010D01*
X15685777Y-8393010D02*
X15704824Y-8402534D01*
X15704824Y-8402534D02*
X15714348Y-8421582D01*
X15714348Y-8421582D02*
X15714348Y-8526344D01*
X15809586Y-8526344D02*
X15809586Y-8393010D01*
X15809586Y-8412058D02*
X15819110Y-8402534D01*
X15819110Y-8402534D02*
X15838158Y-8393010D01*
X15838158Y-8393010D02*
X15866729Y-8393010D01*
X15866729Y-8393010D02*
X15885777Y-8402534D01*
X15885777Y-8402534D02*
X15895301Y-8421582D01*
X15895301Y-8421582D02*
X15895301Y-8526344D01*
X15895301Y-8421582D02*
X15904824Y-8402534D01*
X15904824Y-8402534D02*
X15923872Y-8393010D01*
X15923872Y-8393010D02*
X15952443Y-8393010D01*
X15952443Y-8393010D02*
X15971491Y-8402534D01*
X15971491Y-8402534D02*
X15981015Y-8421582D01*
X15981015Y-8421582D02*
X15981015Y-8526344D01*
X16371491Y-8316820D02*
X16200063Y-8573963D01*
X16628634Y-8326344D02*
X16647682Y-8326344D01*
X16647682Y-8326344D02*
X16666729Y-8335868D01*
X16666729Y-8335868D02*
X16676253Y-8345391D01*
X16676253Y-8345391D02*
X16685777Y-8364439D01*
X16685777Y-8364439D02*
X16695301Y-8402534D01*
X16695301Y-8402534D02*
X16695301Y-8450153D01*
X16695301Y-8450153D02*
X16685777Y-8488249D01*
X16685777Y-8488249D02*
X16676253Y-8507296D01*
X16676253Y-8507296D02*
X16666729Y-8516820D01*
X16666729Y-8516820D02*
X16647682Y-8526344D01*
X16647682Y-8526344D02*
X16628634Y-8526344D01*
X16628634Y-8526344D02*
X16609586Y-8516820D01*
X16609586Y-8516820D02*
X16600063Y-8507296D01*
X16600063Y-8507296D02*
X16590539Y-8488249D01*
X16590539Y-8488249D02*
X16581015Y-8450153D01*
X16581015Y-8450153D02*
X16581015Y-8402534D01*
X16581015Y-8402534D02*
X16590539Y-8364439D01*
X16590539Y-8364439D02*
X16600063Y-8345391D01*
X16600063Y-8345391D02*
X16609586Y-8335868D01*
X16609586Y-8335868D02*
X16628634Y-8326344D01*
X16781015Y-8507296D02*
X16790539Y-8516820D01*
X16790539Y-8516820D02*
X16781015Y-8526344D01*
X16781015Y-8526344D02*
X16771491Y-8516820D01*
X16771491Y-8516820D02*
X16781015Y-8507296D01*
X16781015Y-8507296D02*
X16781015Y-8526344D01*
X16914348Y-8326344D02*
X16933396Y-8326344D01*
X16933396Y-8326344D02*
X16952444Y-8335868D01*
X16952444Y-8335868D02*
X16961968Y-8345391D01*
X16961968Y-8345391D02*
X16971491Y-8364439D01*
X16971491Y-8364439D02*
X16981015Y-8402534D01*
X16981015Y-8402534D02*
X16981015Y-8450153D01*
X16981015Y-8450153D02*
X16971491Y-8488249D01*
X16971491Y-8488249D02*
X16961968Y-8507296D01*
X16961968Y-8507296D02*
X16952444Y-8516820D01*
X16952444Y-8516820D02*
X16933396Y-8526344D01*
X16933396Y-8526344D02*
X16914348Y-8526344D01*
X16914348Y-8526344D02*
X16895301Y-8516820D01*
X16895301Y-8516820D02*
X16885777Y-8507296D01*
X16885777Y-8507296D02*
X16876253Y-8488249D01*
X16876253Y-8488249D02*
X16866729Y-8450153D01*
X16866729Y-8450153D02*
X16866729Y-8402534D01*
X16866729Y-8402534D02*
X16876253Y-8364439D01*
X16876253Y-8364439D02*
X16885777Y-8345391D01*
X16885777Y-8345391D02*
X16895301Y-8335868D01*
X16895301Y-8335868D02*
X16914348Y-8326344D01*
X17047682Y-8326344D02*
X17171491Y-8326344D01*
X17171491Y-8326344D02*
X17104825Y-8402534D01*
X17104825Y-8402534D02*
X17133396Y-8402534D01*
X17133396Y-8402534D02*
X17152444Y-8412058D01*
X17152444Y-8412058D02*
X17161968Y-8421582D01*
X17161968Y-8421582D02*
X17171491Y-8440630D01*
X17171491Y-8440630D02*
X17171491Y-8488249D01*
X17171491Y-8488249D02*
X17161968Y-8507296D01*
X17161968Y-8507296D02*
X17152444Y-8516820D01*
X17152444Y-8516820D02*
X17133396Y-8526344D01*
X17133396Y-8526344D02*
X17076253Y-8526344D01*
X17076253Y-8526344D02*
X17057206Y-8516820D01*
X17057206Y-8516820D02*
X17047682Y-8507296D01*
X17266729Y-8526344D02*
X17304825Y-8526344D01*
X17304825Y-8526344D02*
X17323872Y-8516820D01*
X17323872Y-8516820D02*
X17333396Y-8507296D01*
X17333396Y-8507296D02*
X17352444Y-8478725D01*
X17352444Y-8478725D02*
X17361968Y-8440630D01*
X17361968Y-8440630D02*
X17361968Y-8364439D01*
X17361968Y-8364439D02*
X17352444Y-8345391D01*
X17352444Y-8345391D02*
X17342920Y-8335868D01*
X17342920Y-8335868D02*
X17323872Y-8326344D01*
X17323872Y-8326344D02*
X17285777Y-8326344D01*
X17285777Y-8326344D02*
X17266729Y-8335868D01*
X17266729Y-8335868D02*
X17257206Y-8345391D01*
X17257206Y-8345391D02*
X17247682Y-8364439D01*
X17247682Y-8364439D02*
X17247682Y-8412058D01*
X17247682Y-8412058D02*
X17257206Y-8431106D01*
X17257206Y-8431106D02*
X17266729Y-8440630D01*
X17266729Y-8440630D02*
X17285777Y-8450153D01*
X17285777Y-8450153D02*
X17323872Y-8450153D01*
X17323872Y-8450153D02*
X17342920Y-8440630D01*
X17342920Y-8440630D02*
X17352444Y-8431106D01*
X17352444Y-8431106D02*
X17361968Y-8412058D01*
X17533396Y-8393010D02*
X17533396Y-8526344D01*
X17485777Y-8316820D02*
X17438158Y-8459677D01*
X17438158Y-8459677D02*
X17561968Y-8459677D01*
X17628634Y-8326344D02*
X17628634Y-8364439D01*
X17704825Y-8326344D02*
X17704825Y-8364439D01*
X18000063Y-8602534D02*
X17990539Y-8593010D01*
X17990539Y-8593010D02*
X17971491Y-8564439D01*
X17971491Y-8564439D02*
X17961968Y-8545391D01*
X17961968Y-8545391D02*
X17952444Y-8516820D01*
X17952444Y-8516820D02*
X17942920Y-8469201D01*
X17942920Y-8469201D02*
X17942920Y-8431106D01*
X17942920Y-8431106D02*
X17952444Y-8383487D01*
X17952444Y-8383487D02*
X17961968Y-8354915D01*
X17961968Y-8354915D02*
X17971491Y-8335868D01*
X17971491Y-8335868D02*
X17990539Y-8307296D01*
X17990539Y-8307296D02*
X18000063Y-8297772D01*
X18181015Y-8526344D02*
X18066730Y-8526344D01*
X18123872Y-8526344D02*
X18123872Y-8326344D01*
X18123872Y-8326344D02*
X18104825Y-8354915D01*
X18104825Y-8354915D02*
X18085777Y-8373963D01*
X18085777Y-8373963D02*
X18066730Y-8383487D01*
X18304825Y-8326344D02*
X18323872Y-8326344D01*
X18323872Y-8326344D02*
X18342920Y-8335868D01*
X18342920Y-8335868D02*
X18352444Y-8345391D01*
X18352444Y-8345391D02*
X18361968Y-8364439D01*
X18361968Y-8364439D02*
X18371491Y-8402534D01*
X18371491Y-8402534D02*
X18371491Y-8450153D01*
X18371491Y-8450153D02*
X18361968Y-8488249D01*
X18361968Y-8488249D02*
X18352444Y-8507296D01*
X18352444Y-8507296D02*
X18342920Y-8516820D01*
X18342920Y-8516820D02*
X18323872Y-8526344D01*
X18323872Y-8526344D02*
X18304825Y-8526344D01*
X18304825Y-8526344D02*
X18285777Y-8516820D01*
X18285777Y-8516820D02*
X18276253Y-8507296D01*
X18276253Y-8507296D02*
X18266730Y-8488249D01*
X18266730Y-8488249D02*
X18257206Y-8450153D01*
X18257206Y-8450153D02*
X18257206Y-8402534D01*
X18257206Y-8402534D02*
X18266730Y-8364439D01*
X18266730Y-8364439D02*
X18276253Y-8345391D01*
X18276253Y-8345391D02*
X18285777Y-8335868D01*
X18285777Y-8335868D02*
X18304825Y-8326344D01*
X18609587Y-8526344D02*
X18609587Y-8326344D01*
X18695301Y-8526344D02*
X18695301Y-8421582D01*
X18695301Y-8421582D02*
X18685777Y-8402534D01*
X18685777Y-8402534D02*
X18666730Y-8393010D01*
X18666730Y-8393010D02*
X18638158Y-8393010D01*
X18638158Y-8393010D02*
X18619111Y-8402534D01*
X18619111Y-8402534D02*
X18609587Y-8412058D01*
X18819111Y-8526344D02*
X18800063Y-8516820D01*
X18800063Y-8516820D02*
X18790539Y-8507296D01*
X18790539Y-8507296D02*
X18781015Y-8488249D01*
X18781015Y-8488249D02*
X18781015Y-8431106D01*
X18781015Y-8431106D02*
X18790539Y-8412058D01*
X18790539Y-8412058D02*
X18800063Y-8402534D01*
X18800063Y-8402534D02*
X18819111Y-8393010D01*
X18819111Y-8393010D02*
X18847682Y-8393010D01*
X18847682Y-8393010D02*
X18866730Y-8402534D01*
X18866730Y-8402534D02*
X18876253Y-8412058D01*
X18876253Y-8412058D02*
X18885777Y-8431106D01*
X18885777Y-8431106D02*
X18885777Y-8488249D01*
X18885777Y-8488249D02*
X18876253Y-8507296D01*
X18876253Y-8507296D02*
X18866730Y-8516820D01*
X18866730Y-8516820D02*
X18847682Y-8526344D01*
X18847682Y-8526344D02*
X18819111Y-8526344D01*
X19000063Y-8526344D02*
X18981015Y-8516820D01*
X18981015Y-8516820D02*
X18971492Y-8497772D01*
X18971492Y-8497772D02*
X18971492Y-8326344D01*
X19152444Y-8516820D02*
X19133396Y-8526344D01*
X19133396Y-8526344D02*
X19095301Y-8526344D01*
X19095301Y-8526344D02*
X19076253Y-8516820D01*
X19076253Y-8516820D02*
X19066730Y-8497772D01*
X19066730Y-8497772D02*
X19066730Y-8421582D01*
X19066730Y-8421582D02*
X19076253Y-8402534D01*
X19076253Y-8402534D02*
X19095301Y-8393010D01*
X19095301Y-8393010D02*
X19133396Y-8393010D01*
X19133396Y-8393010D02*
X19152444Y-8402534D01*
X19152444Y-8402534D02*
X19161968Y-8421582D01*
X19161968Y-8421582D02*
X19161968Y-8440630D01*
X19161968Y-8440630D02*
X19066730Y-8459677D01*
X19238158Y-8516820D02*
X19257206Y-8526344D01*
X19257206Y-8526344D02*
X19295301Y-8526344D01*
X19295301Y-8526344D02*
X19314349Y-8516820D01*
X19314349Y-8516820D02*
X19323873Y-8497772D01*
X19323873Y-8497772D02*
X19323873Y-8488249D01*
X19323873Y-8488249D02*
X19314349Y-8469201D01*
X19314349Y-8469201D02*
X19295301Y-8459677D01*
X19295301Y-8459677D02*
X19266730Y-8459677D01*
X19266730Y-8459677D02*
X19247682Y-8450153D01*
X19247682Y-8450153D02*
X19238158Y-8431106D01*
X19238158Y-8431106D02*
X19238158Y-8421582D01*
X19238158Y-8421582D02*
X19247682Y-8402534D01*
X19247682Y-8402534D02*
X19266730Y-8393010D01*
X19266730Y-8393010D02*
X19295301Y-8393010D01*
X19295301Y-8393010D02*
X19314349Y-8402534D01*
X19390539Y-8602534D02*
X19400063Y-8593010D01*
X19400063Y-8593010D02*
X19419111Y-8564439D01*
X19419111Y-8564439D02*
X19428634Y-8545391D01*
X19428634Y-8545391D02*
X19438158Y-8516820D01*
X19438158Y-8516820D02*
X19447682Y-8469201D01*
X19447682Y-8469201D02*
X19447682Y-8431106D01*
X19447682Y-8431106D02*
X19438158Y-8383487D01*
X19438158Y-8383487D02*
X19428634Y-8354915D01*
X19428634Y-8354915D02*
X19419111Y-8335868D01*
X19419111Y-8335868D02*
X19400063Y-8307296D01*
X19400063Y-8307296D02*
X19390539Y-8297772D01*
M02*
