M48
; DRILL file {KiCad 7.0.6-0} date 2023 November 15, Wednesday 10:52:03
; FORMAT={-:-/ absolute / metric / decimal}
; #@! TF.CreationDate,2023-11-15T10:52:03-05:00
; #@! TF.GenerationSoftware,Kicad,Pcbnew,7.0.6-0
; #@! TF.FileFunction,Plated,1,4,PTH
FMAT,2
METRIC
; #@! TA.AperFunction,Plated,PTH,ViaDrill
T1C0.400
; #@! TA.AperFunction,Plated,PTH,ComponentDrill
T2C0.800
; #@! TA.AperFunction,Plated,PTH,ComponentDrill
T3C1.000
%
G90
G05
T1
X151.765Y-63.805
X157.0Y-49.772
X157.0Y-57.772
X157.0Y-61.772
X162.814Y-70.841
X172.212Y-71.069
X180.34Y-49.76
X180.34Y-57.76
X180.34Y-61.76
X185.6Y-63.76
T2
X152.77Y-49.772
X152.77Y-51.771
X152.77Y-53.772
X152.77Y-55.772
X152.77Y-57.772
X152.77Y-59.772
X152.77Y-61.772
X152.77Y-63.772
X152.77Y-65.772
X154.769Y-49.772
X154.769Y-51.771
X154.77Y-53.772
X154.77Y-55.772
X154.77Y-57.772
X154.77Y-59.772
X154.77Y-61.772
X154.77Y-63.772
X154.77Y-65.772
X182.3Y-53.76
X182.3Y-55.76
X182.3Y-57.76
X182.3Y-59.76
X182.3Y-61.76
X182.3Y-63.76
X182.3Y-65.76
X182.301Y-49.76
X182.301Y-51.759
X184.3Y-49.76
X184.3Y-51.759
X184.3Y-53.76
X184.3Y-55.76
X184.3Y-57.76
X184.3Y-59.76
X184.3Y-61.76
X184.3Y-63.76
X184.3Y-65.76
T3
X168.58Y-45.979
X168.58Y-48.519
X168.58Y-51.059
X168.58Y-53.599
X168.58Y-56.139
X168.58Y-58.679
X168.58Y-61.219
X168.58Y-63.759
X168.58Y-66.299
X168.58Y-68.839
T0
M30
